<svg viewBox="0 0 800 700" xmlns="http://www.w3.org/2000/svg">
  <defs>
    <style>
      .title { font-size: 18px; font-weight: bold; fill: #000; }
      .subtitle { font-size: 14px; fill: #333; }
      .header { font-size: 11px; font-weight: bold; fill: #fff; }
      .content { font-size: 10px; fill: #333; }
    </style>
  </defs>
  
  <rect width="800" height="700" fill="#fff" stroke="#ccc" stroke-width="1"/>
  
  <text x="400" y="30" class="title" text-anchor="middle">US Navy Oxygen Treatment Table 6</text>
  <text x="400" y="50" class="subtitle" text-anchor="middle">Recompression Treatment Table</text>
  
  <rect x="40" y="70" width="720" height="25" fill="#0066cc"/>
  
  <text x="80" y="90" class="header" fill="#fff">Pressure (MSW)</text>
  <text x="180" y="90" class="header" fill="#fff">Time (min)</text>
  <text x="280" y="90" class="header" fill="#fff">Breathing Gas</text>
  <text x="450" y="90" class="header" fill="#fff">Total Time (hour/min)</text>
  <text x="650" y="90" class="header" fill="#fff">Total OTU</text>
  
  <line x1="40" y1="95" x2="760" y2="95" stroke="#ccc" stroke-width="1"/>
  <text x="80" y="113" class="content">18</text>
  <text x="180" y="113" class="content">20</text>
  <text x="280" y="113" class="content">Oxygen</text>
  <text x="450" y="113" class="content">00:20</text>
  <text x="650" y="113" class="content">71</text>
  
  <line x1="40" y1="118" x2="760" y2="118" stroke="#ccc" stroke-width="1"/>
  <text x="80" y="136" class="content">18</text>
  <text x="180" y="136" class="content">5</text>
  <text x="280" y="136" class="content">Air</text>
  <text x="450" y="136" class="content">00:25</text>
  <text x="650" y="136" class="content">73</text>
  
  <line x1="40" y1="141" x2="760" y2="141" stroke="#ccc" stroke-width="1"/>
  <text x="80" y="159" class="content">18</text>
  <text x="180" y="159" class="content">20</text>
  <text x="280" y="159" class="content">Oxygen</text>
  <text x="450" y="159" class="content">00:45</text>
  <text x="650" y="159" class="content">144</text>
  
  <line x1="40" y1="164" x2="760" y2="164" stroke="#ccc" stroke-width="1"/>
  <text x="80" y="182" class="content">18</text>
  <text x="180" y="182" class="content">5</text>
  <text x="280" y="182" class="content">Air</text>
  <text x="450" y="182" class="content">00:50</text>
  <text x="650" y="182" class="content">145</text>
  
  <line x1="40" y1="187" x2="760" y2="187" stroke="#ccc" stroke-width="1"/>
  <text x="80" y="205" class="content">18</text>
  <text x="180" y="205" class="content">20</text>
  <text x="280" y="205" class="content">Oxygen</text>
  <text x="450" y="205" class="content">01:10</text>
  <text x="650" y="205" class="content">216</text>
  
  <line x1="40" y1="210" x2="760" y2="210" stroke="#ccc" stroke-width="1"/>
  <text x="80" y="228" class="content">18</text>
  <text x="180" y="228" class="content">5</text>
  <text x="280" y="228" class="content">Air</text>
  <text x="450" y="228" class="content">01:15</text>
  <text x="650" y="228" class="content">218</text>
  
  <line x1="40" y1="233" x2="760" y2="233" stroke="#ccc" stroke-width="1"/>
  <text x="80" y="251" class="content">18-Sep</text>
  <text x="180" y="251" class="content">30</text>
  <text x="280" y="251" class="content">Oxygen</text>
  <text x="450" y="251" class="content">01:45</text>
  <text x="650" y="251" class="content">307</text>
  
  <line x1="40" y1="256" x2="760" y2="256" stroke="#ccc" stroke-width="1"/>
  <text x="80" y="274" class="content">9</text>
  <text x="180" y="274" class="content">15</text>
  <text x="280" y="274" class="content">Air</text>
  <text x="450" y="274" class="content">02:00</text>
  <text x="650" y="274" class="content">307</text>
  
  <line x1="40" y1="279" x2="760" y2="279" stroke="#ccc" stroke-width="1"/>
  <text x="80" y="297" class="content">9</text>
  <text x="180" y="297" class="content">60</text>
  <text x="280" y="297" class="content">Oxygen</text>
  <text x="450" y="297" class="content">03:00</text>
  <text x="650" y="297" class="content">448</text>
  
  <line x1="40" y1="302" x2="760" y2="302" stroke="#ccc" stroke-width="1"/>
  <text x="80" y="320" class="content">9</text>
  <text x="180" y="320" class="content">15</text>
  <text x="280" y="320" class="content">Air</text>
  <text x="450" y="320" class="content">03:15</text>
  <text x="650" y="320" class="content">448</text>
  
  <line x1="40" y1="325" x2="760" y2="325" stroke="#ccc" stroke-width="1"/>
  <text x="80" y="343" class="content">9</text>
  <text x="180" y="343" class="content">60</text>
  <text x="280" y="343" class="content">Oxygen</text>
  <text x="450" y="343" class="content">04:15</text>
  <text x="650" y="343" class="content">590</text>
  
  <line x1="40" y1="348" x2="760" y2="348" stroke="#000" stroke-width="2"/>
  <text x="80" y="366" class="content">9-0</text>
  <text x="180" y="366" class="content">30</text>
  <text x="280" y="366" class="content">Oxygen</text>
  <text x="450" y="366" class="content">04:45</text>
  <text x="650" y="366" class="content">641</text>
  
  <text x="50" y="410" class="subtitle" font-weight="bold">Use this table for:</text>
  <text x="70" y="435" class="content">• Treatment of decompression sickness (type I and II), if symptoms do not disappear within 10 minutes at 18 msw</text>
  <text x="70" y="460" class="content">• Treatment of air embolism</text>
  <text x="70" y="485" class="content">• When it is not clear if the symptoms are caused by air embolism or very serious decompression sickness</text>
  
  <text x="50" y="525" class="subtitle" font-weight="bold">Important Notes:</text>
  <text x="70" y="550" class="content">1. Descent rate: 7.5 msw per minute</text>
  <text x="70" y="575" class="content">2. Ascent rate: 0.3 msw per minute</text>
  <text x="70" y="600" class="content">3. Table 6 can be lengthened by an extra 25 minutes at 18 msw or 75 minutes at 9 msw</text>
  <text x="70" y="625" class="content">4. Tender breathes 100% O₂ during the last 30 minutes at 9 msw and during ascent to surface</text>
</svg>
